<svg width="25" height="25" viewBox="0 0 25 25" fill="none" xmlns="http://www.w3.org/2000/svg">
<path d="M12.5 1.61133C6.45996 1.61133 1.5625 6.50879 1.5625 12.5488C1.5625 18.5889 6.45996 23.4863 12.5 23.4863C18.54 23.4863 23.4375 18.5889 23.4375 12.5488C23.4375 6.50879 18.54 1.61133 12.5 1.61133ZM17.7881 16.2354C17.8613 16.3086 17.9004 16.4063 17.9004 16.5088C17.9004 16.6113 17.8613 16.7139 17.7881 16.7822L16.7334 17.8418C16.6553 17.9199 16.5576 17.9541 16.46 17.9541C16.3623 17.9541 16.2598 17.915 16.1865 17.8418L12.5 14.1504L8.81836 17.8467C8.74512 17.9248 8.64258 17.959 8.54492 17.959C8.44727 17.959 8.34473 17.9199 8.27148 17.8467L7.2168 16.7871C7.14355 16.7139 7.10449 16.6162 7.10449 16.5137C7.10449 16.4111 7.14355 16.3086 7.2168 16.2402L10.9131 12.5293L7.20703 8.86719C7.05566 8.71582 7.05566 8.4668 7.20703 8.31543L8.26172 7.25586C8.33496 7.18262 8.43262 7.14355 8.53516 7.14355C8.6377 7.14355 8.73535 7.18262 8.80859 7.25586L12.5049 10.9033L16.2012 7.25586C16.2744 7.18262 16.3721 7.14355 16.4746 7.14355C16.5771 7.14355 16.6748 7.18262 16.748 7.25586L17.8027 8.31543C17.9541 8.4668 17.9541 8.71582 17.8027 8.86719L14.0967 12.5293L17.7881 16.2354Z" fill="black"/>
</svg>
