<svg width="26" height="26" viewBox="0 0 26 26" fill="none" xmlns="http://www.w3.org/2000/svg">
<path d="M12 18C11.8684 18.0008 11.7379 17.9755 11.6161 17.9258C11.4943 17.876 11.3834 17.8027 11.29 17.71L7.29 13.71C7.1017 13.5217 6.99591 13.2663 6.99591 13C6.99591 12.7337 7.1017 12.4783 7.29 12.29C7.47831 12.1017 7.7337 11.9959 8 11.9959C8.2663 11.9959 8.5217 12.1017 8.71 12.29L12 15.59L18.29 9.29C18.4783 9.1017 18.7337 8.99591 19 8.99591C19.2663 8.99591 19.5217 9.1017 19.71 9.29C19.8983 9.47831 20.0041 9.7337 20.0041 10C20.0041 10.2663 19.8983 10.5217 19.71 10.71L12.71 17.71C12.6166 17.8027 12.5057 17.876 12.3839 17.9258C12.2621 17.9755 12.1316 18.0008 12 18Z" fill="white"/>
<path d="M13 26C10.4288 26 7.91543 25.2376 5.77759 23.8091C3.63975 22.3807 1.97351 20.3503 0.989572 17.9749C0.0056327 15.5995 -0.251811 12.9856 0.249797 10.4638C0.751405 7.94208 1.98953 5.6257 3.80762 3.80762C5.6257 1.98953 7.94208 0.751405 10.4638 0.249797C12.9856 -0.251811 15.5995 0.0056327 17.9749 0.989572C20.3503 1.97351 22.3807 3.63975 23.8091 5.77759C25.2376 7.91543 26 10.4288 26 13C26 16.4478 24.6304 19.7544 22.1924 22.1924C19.7544 24.6304 16.4478 26 13 26V26ZM13 2.00001C10.8244 2.00001 8.69767 2.64514 6.88873 3.85384C5.07979 5.06254 3.66989 6.7805 2.83733 8.79049C2.00477 10.8005 1.78693 13.0122 2.21137 15.146C2.63581 17.2798 3.68345 19.2398 5.22183 20.7782C6.76021 22.3166 8.72022 23.3642 10.854 23.7886C12.9878 24.2131 15.1995 23.9952 17.2095 23.1627C19.2195 22.3301 20.9375 20.9202 22.1462 19.1113C23.3549 17.3023 24 15.1756 24 13C24 10.0826 22.8411 7.28473 20.7782 5.22183C18.7153 3.15893 15.9174 2.00001 13 2.00001Z" fill="white"/>
</svg>
